<svg width="50" height="50" viewBox="0 0 50 50" fill="none" xmlns="http://www.w3.org/2000/svg">
<g clip-path="url(#clip0_110_18)">
<path d="M49.684 7.27197C49.4103 6.92988 48.9959 6.73076 48.5577 6.73076H10.1711L9.09766 2.07939C8.94658 1.425 8.36387 0.961426 7.69229 0.961426H1.44229C0.645801 0.961426 0 1.60723 0 2.40381C0 3.20039 0.645801 3.84609 1.44229 3.84609H6.54492L13.8313 35.4204C13.9822 36.0748 14.565 36.5384 15.2366 36.5384H44.1346C44.9312 36.5384 45.5769 35.8926 45.5769 35.0961C45.5769 34.2995 44.9311 33.6538 44.1346 33.6538H16.3841L15.2747 28.8461H44.2309C44.9055 28.8461 45.4899 28.3785 45.638 27.7204L49.9648 8.48964C50.061 8.06211 49.9577 7.61416 49.684 7.27197ZM43.077 25.9614H14.609L10.8368 9.61533H46.7548L43.077 25.9614Z" fill="#FF0000"/>
<path d="M21.1538 38.4614C18.2378 38.4614 15.8653 40.8338 15.8653 43.7499C15.8653 46.666 18.2377 49.0384 21.1538 49.0384C24.0698 49.0384 26.4423 46.666 26.4423 43.7499C26.4423 40.8338 24.0699 38.4614 21.1538 38.4614ZM21.1538 46.1538C19.8283 46.1538 18.75 45.0754 18.75 43.7499C18.75 42.4244 19.8283 41.3461 21.1538 41.3461C22.4793 41.3461 23.5576 42.4244 23.5576 43.7499C23.5576 45.0754 22.4793 46.1538 21.1538 46.1538Z" fill="#FF0000"/>
<path d="M38.4615 38.4614C35.5455 38.4614 33.173 40.8338 33.173 43.7499C33.173 46.666 35.5454 49.0384 38.4615 49.0384C41.3775 49.0384 43.75 46.666 43.75 43.7499C43.75 40.8338 41.3776 38.4614 38.4615 38.4614ZM38.4615 46.1538C37.136 46.1538 36.0577 45.0755 36.0577 43.75C36.0577 42.4245 37.136 41.3462 38.4615 41.3462C39.787 41.3462 40.8653 42.4245 40.8653 43.75C40.8653 45.0755 39.787 46.1538 38.4615 46.1538Z" fill="#FF0000"/>
</g>
<defs>
<clipPath id="clip0_110_18">
<rect width="50" height="50" fill="white"/>
</clipPath>
</defs>
</svg>
