<svg width="40" height="40" viewBox="0 0 40 40" fill="none" xmlns="http://www.w3.org/2000/svg">
<path d="M31.6126 24.7785C30.7937 23.9259 29.806 23.47 28.7591 23.47C27.7207 23.47 26.7246 23.9174 25.8719 24.7701L23.2041 27.4294C22.9846 27.3112 22.7651 27.2015 22.5541 27.0917C22.2501 26.9398 21.9631 26.7962 21.7183 26.6443C19.2194 25.0571 16.9484 22.9888 14.7703 20.3126C13.715 18.9787 13.0059 17.8559 12.4909 16.7162C13.1831 16.083 13.8248 15.4245 14.4495 14.7913C14.6859 14.555 14.9223 14.3101 15.1586 14.0737C16.9315 12.3009 16.9315 10.0046 15.1586 8.23169L12.8539 5.92695C12.5922 5.66524 12.322 5.39509 12.0688 5.12494C11.5622 4.60152 11.0304 4.06121 10.4816 3.55467C9.66272 2.74422 8.68341 2.31366 7.65346 2.31366C6.6235 2.31366 5.62731 2.74422 4.78308 3.55467C4.77464 3.56312 4.77464 3.56312 4.7662 3.57156L1.89583 6.46726C0.815215 7.54787 0.198929 8.86486 0.0638525 10.3929C-0.138762 12.8581 0.587273 15.1544 1.14446 16.6571C2.51211 20.3464 4.55514 23.7655 7.6028 27.4294C11.3005 31.8447 15.7496 35.3314 20.8318 37.7881C22.7736 38.7083 25.3653 39.7974 28.261 39.9831C28.4383 39.9915 28.6241 40 28.7929 40C30.7431 40 32.3809 39.2993 33.6641 37.9063C33.6725 37.8894 33.6894 37.881 33.6979 37.8641C34.1369 37.3322 34.6434 36.851 35.1753 36.336C35.5383 35.9899 35.9097 35.6269 36.2728 35.247C37.1085 34.3774 37.5475 33.3643 37.5475 32.3259C37.5475 31.2791 37.1001 30.2745 36.2474 29.4302L31.6126 24.7785ZM34.635 33.6683C34.6265 33.6683 34.6265 33.6767 34.635 33.6683C34.3057 34.0228 33.968 34.3436 33.605 34.6982C33.0563 35.2216 32.4991 35.7704 31.9756 36.3867C31.123 37.2984 30.1183 37.729 28.8014 37.729C28.6747 37.729 28.5396 37.729 28.413 37.7206C25.9057 37.5601 23.5756 36.5808 21.828 35.7451C17.0497 33.4319 12.8539 30.1478 9.36724 25.9858C6.48842 22.516 4.56358 19.308 3.2888 15.8635C2.50367 13.7614 2.21663 12.1236 2.34327 10.5786C2.42769 9.5909 2.80759 8.772 3.5083 8.07129L6.38711 5.19247C6.80079 4.80413 7.23978 4.59307 7.67034 4.59307C8.2022 4.59307 8.63276 4.91388 8.90291 5.18403C8.91135 5.19247 8.9198 5.20092 8.92824 5.20936C9.44322 5.69057 9.93287 6.18866 10.4478 6.72053C10.7096 6.99068 10.9797 7.26083 11.2499 7.53943L13.5546 9.84417C14.4495 10.739 14.4495 11.5664 13.5546 12.4613C13.3098 12.7061 13.0734 12.9509 12.8286 13.1873C12.1194 13.9133 11.444 14.5887 10.7096 15.2472C10.6927 15.2641 10.6758 15.2725 10.6673 15.2894C9.94131 16.0155 10.0764 16.7246 10.2283 17.2058C10.2368 17.2312 10.2452 17.2565 10.2537 17.2818C10.8531 18.7339 11.6973 20.1015 12.9805 21.7309L12.989 21.7393C15.319 24.6097 17.7757 26.8469 20.4857 28.5607C20.8318 28.7802 21.1864 28.9575 21.5241 29.1263C21.828 29.2783 22.1151 29.4218 22.3599 29.5738C22.3937 29.5906 22.4274 29.616 22.4612 29.6329C22.7482 29.7764 23.0184 29.8439 23.297 29.8439C23.9977 29.8439 24.4367 29.4049 24.5802 29.2614L27.4675 26.3741C27.7545 26.0871 28.2104 25.741 28.7423 25.741C29.2657 25.741 29.6962 26.0702 29.9579 26.3573C29.9664 26.3657 29.9664 26.3657 29.9748 26.3741L34.6265 31.0258C35.4961 31.8869 35.4961 32.7734 34.635 33.6683Z" fill="#181818"/>
<path d="M21.617 9.51493C23.8289 9.88639 25.8382 10.9332 27.4422 12.5373C29.0462 14.1413 30.0846 16.1506 30.4645 18.3624C30.5574 18.9196 31.0386 19.308 31.5874 19.308C31.6549 19.308 31.714 19.2995 31.7815 19.2911C32.4063 19.1898 32.8199 18.5988 32.7186 17.9741C32.2627 15.2979 30.9964 12.8581 29.0631 10.9248C27.1298 8.99151 24.69 7.72517 22.0138 7.26929C21.3891 7.16798 20.8066 7.58165 20.6968 8.19794C20.5871 8.81422 20.9923 9.41362 21.617 9.51493Z" fill="#181818"/>
<path d="M39.9535 17.6448C39.2022 13.238 37.1254 9.2279 33.9342 6.03672C30.743 2.84554 26.7329 0.768738 22.3261 0.0173754C21.7098 -0.0923741 21.1273 0.32974 21.0175 0.946026C20.9162 1.57075 21.3299 2.15327 21.9546 2.26302C25.8887 2.92996 29.4767 4.7957 32.3302 7.64075C35.1836 10.4942 37.0409 14.0822 37.7079 18.0163C37.8007 18.5735 38.282 18.9618 38.8307 18.9618C38.8982 18.9618 38.9573 18.9534 39.0249 18.945C39.6412 18.8521 40.0633 18.2611 39.9535 17.6448Z" fill="#181818"/>
</svg>
