<svg width="40" height="40" viewBox="0 0 40 40" fill="none" xmlns="http://www.w3.org/2000/svg">
<g clip-path="url(#clip0_95_42)">
<path d="M39.7472 5.81766C39.5282 5.54399 39.1967 5.38469 38.8462 5.38469H8.13688L7.27813 1.6636C7.15727 1.14009 6.69109 0.769226 6.15383 0.769226H1.15383C0.516641 0.769226 0 1.28587 0 1.92313C0 2.5604 0.516641 3.07696 1.15383 3.07696H5.23594L11.065 28.3364C11.1858 28.8599 11.652 29.2308 12.1893 29.2308H35.3077C35.9449 29.2308 36.4615 28.7141 36.4615 28.0769C36.4615 27.4397 35.9448 26.9231 35.3077 26.9231H13.1073L12.2198 23.077H35.3847C35.9244 23.077 36.392 22.7029 36.5104 22.1764L39.9719 6.7918C40.0488 6.44977 39.9662 6.09141 39.7472 5.81766ZM34.4616 20.7692H11.6872L8.66945 7.69235H37.4038L34.4616 20.7692Z" fill="#FF0000"/>
<path d="M16.923 30.7692C14.5902 30.7692 12.6923 32.6671 12.6923 35C12.6923 37.3329 14.5902 39.2308 16.923 39.2308C19.2559 39.2308 21.1538 37.3329 21.1538 35C21.1538 32.6671 19.2559 30.7692 16.923 30.7692ZM16.923 36.9231C15.8627 36.9231 15 36.0604 15 35C15 33.9396 15.8627 33.077 16.923 33.077C17.9834 33.077 18.8461 33.9396 18.8461 35C18.8461 36.0604 17.9834 36.9231 16.923 36.9231Z" fill="#FF0000"/>
<path d="M30.7692 30.7692C28.4364 30.7692 26.5384 32.6671 26.5384 35C26.5384 37.3329 28.4363 39.2308 30.7692 39.2308C33.102 39.2308 35 37.3329 35 35C35 32.6671 33.1021 30.7692 30.7692 30.7692ZM30.7692 36.9231C29.7088 36.9231 28.8461 36.0605 28.8461 35.0001C28.8461 33.9397 29.7088 33.077 30.7692 33.077C31.8296 33.077 32.6922 33.9397 32.6922 35.0001C32.6922 36.0605 31.8296 36.9231 30.7692 36.9231Z" fill="#FF0000"/>
</g>
<defs>
<clipPath id="clip0_95_42">
<rect width="40" height="40" fill="white"/>
</clipPath>
</defs>
</svg>
