<svg width="40" height="40" viewBox="0 0 40 40" fill="none" xmlns="http://www.w3.org/2000/svg">
<path d="M22.0563 13.5938C22.0563 13.5938 20.9739 13.528 20.3375 13.75C19.1968 14.1479 18.7204 14.8725 18.15 15.9375C17.6188 16.9294 17.5639 18.125 17.525 18.4375C17.3443 19.8908 17.4487 21.2144 18.15 22.5C18.5632 23.2576 19.4 24.0625 19.7125 24.375C20.025 24.6875 20.65 25.3125 21.275 25.625C21.7789 25.8769 22.0563 25.9375 22.0563 25.9375M22.0563 13.5938C22.0563 13.5938 24.263 13.5938 25.5006 13.5938C26.2122 13.5938 26.9 12.8125 26.9 10.3125C26.9 8.10279 26.275 6.875 25.025 6.875C23.775 6.875 22.0563 6.875 22.0563 6.875M22.0563 13.5938V6.875M22.0563 6.875C22.0563 6.875 19.4 6.875 18.4625 7.18751C17.525 7.50001 16.1674 8.26736 15.025 9.37501C13.9555 10.412 13.2629 11.2059 12.525 12.5C11.7946 13.781 11.3214 14.5072 10.9625 15.9375C10.6936 17.0094 10.7197 17.6471 10.65 18.75C10.5577 20.2116 10.7341 21.0535 10.9625 22.5C11.2033 24.0248 11.4819 24.8902 12.2125 26.25C13.0334 27.7779 14.4 29.0141 15.025 29.6875C15.65 30.3609 16.116 30.6555 16.9 31.25C17.684 31.8445 18.4625 32.0069 19.0875 32.1875C20.2013 32.5094 21.385 32.8125 22.0563 32.8125M22.0563 32.8125C22.7275 32.8125 25.404 33.1848 25.9625 32.8125C27.0217 32.1064 27.2125 30.9375 27.2125 30.9375C27.3312 30.4498 27.525 28.75 27.2125 27.5C26.9 26.25 26.5875 26.25 26.275 25.9375C25.7141 25.3766 22.0563 25.9375 22.0563 25.9375M22.0563 32.8125C22.0563 30.1276 22.0563 25.9375 22.0563 25.9375" stroke="black"/>
</svg>
