<svg width="130" height="130" viewBox="0 0 150 150" fill="none" xmlns="http://www.w3.org/2000/svg">
<path fill-rule="evenodd" clip-rule="evenodd" d="M103.325 52.0062C102.276 51.2485 100.811 51.4847 100.053 52.534L71.1565 92.5449L48.4915 70.9592C47.554 70.0664 46.0704 70.1025 45.1779 71.0398C44.2852 71.9773 44.3213 73.4609 45.2585 74.3534L71.8123 99.6427L103.853 55.2785C104.611 54.2292 104.375 52.7642 103.325 52.0062Z" fill="black"/>
<path fill-rule="evenodd" clip-rule="evenodd" d="M75 131.25C106.066 131.25 131.25 106.066 131.25 75C131.25 43.9341 106.066 18.75 75 18.75C43.9341 18.75 18.75 43.9341 18.75 75C18.75 106.066 43.9341 131.25 75 131.25ZM75 135.938C108.655 135.938 135.938 108.655 135.938 75C135.938 41.3452 108.655 14.0625 75 14.0625C41.3452 14.0625 14.0625 41.3452 14.0625 75C14.0625 108.655 41.3452 135.938 75 135.938Z" fill="black"/>
</svg>
