<svg width="130" height="130" viewBox="0 0 130 130" fill="none" xmlns="http://www.w3.org/2000/svg">
<path fill-rule="evenodd" clip-rule="evenodd" d="M37.5781 19.2969C38.7 19.2969 39.6094 20.2063 39.6094 21.3281V26.4062H90.3906V21.3281C90.3906 20.2063 91.3 19.2969 92.4219 19.2969C93.5437 19.2969 94.4531 20.2063 94.4531 21.3281V26.4062H113.75C118.237 26.4062 121.875 30.044 121.875 34.5312V91.1347L109.614 105.625H16.25C11.7627 105.625 8.125 101.987 8.125 97.5V34.5312C8.125 30.044 11.7627 26.4062 16.25 26.4062H35.5469V21.3281C35.5469 20.2063 36.4563 19.2969 37.5781 19.2969ZM16.25 30.4688C14.0063 30.4688 12.1875 32.2875 12.1875 34.5312V97.5C12.1875 99.7437 14.0063 101.562 16.25 101.562H106.641V88.3594H117.812V34.5312C117.812 32.2875 115.994 30.4688 113.75 30.4688H16.25ZM115.464 92.4219H110.703V98.0486L115.464 92.4219Z" fill="black"/>
<path fill-rule="evenodd" clip-rule="evenodd" d="M17.2656 38.5938C17.2656 36.35 19.0845 34.5312 21.3281 34.5312H34.5312C36.775 34.5312 38.5938 36.35 38.5938 38.5938V44.6875C38.5938 46.9312 36.775 48.75 34.5312 48.75H21.3281C19.0845 48.75 17.2656 46.9312 17.2656 44.6875V38.5938ZM34.5312 38.5938H21.3281V44.6875H34.5312V38.5938Z" fill="black"/>
<path fill-rule="evenodd" clip-rule="evenodd" d="M17.2656 56.875C17.2656 54.6313 19.0845 52.8125 21.3281 52.8125H34.5312C36.775 52.8125 38.5938 54.6313 38.5938 56.875V62.9688C38.5938 65.2125 36.775 67.0312 34.5312 67.0312H21.3281C19.0845 67.0312 17.2656 65.2125 17.2656 62.9688V56.875ZM34.5312 56.875H21.3281V62.9688H34.5312V56.875Z" fill="black"/>
<path fill-rule="evenodd" clip-rule="evenodd" d="M17.2656 75.1562C17.2656 72.9125 19.0845 71.0938 21.3281 71.0938H34.5312C36.775 71.0938 38.5938 72.9125 38.5938 75.1562V81.25C38.5938 83.4937 36.775 85.3125 34.5312 85.3125H21.3281C19.0845 85.3125 17.2656 83.4937 17.2656 81.25V75.1562ZM34.5312 75.1562H21.3281V81.25H34.5312V75.1562Z" fill="black"/>
<path fill-rule="evenodd" clip-rule="evenodd" d="M42.6562 38.5938C42.6562 36.35 44.475 34.5312 46.7188 34.5312H59.9219C62.1656 34.5312 63.9844 36.35 63.9844 38.5938V44.6875C63.9844 46.9312 62.1656 48.75 59.9219 48.75H46.7188C44.475 48.75 42.6562 46.9312 42.6562 44.6875V38.5938ZM59.9219 38.5938H46.7188V44.6875H59.9219V38.5938Z" fill="black"/>
<path fill-rule="evenodd" clip-rule="evenodd" d="M42.6562 56.875C42.6562 54.6313 44.475 52.8125 46.7188 52.8125H59.9219C62.1656 52.8125 63.9844 54.6313 63.9844 56.875V62.9688C63.9844 65.2125 62.1656 67.0312 59.9219 67.0312H46.7188C44.475 67.0312 42.6562 65.2125 42.6562 62.9688V56.875ZM59.9219 56.875H46.7188V62.9688H59.9219V56.875Z" fill="black"/>
<path d="M44.6875 81.25V75.1562C44.6875 74.0344 45.5969 73.125 46.7188 73.125H59.9219C61.0437 73.125 61.9531 74.0344 61.9531 75.1562V81.25C61.9531 82.3719 61.0437 83.2812 59.9219 83.2812H46.7188C45.5969 83.2812 44.6875 82.3719 44.6875 81.25Z" fill="#F98600"/>
<path fill-rule="evenodd" clip-rule="evenodd" d="M42.6562 75.1562C42.6562 72.9125 44.475 71.0938 46.7188 71.0938H59.9219C62.1656 71.0938 63.9844 72.9125 63.9844 75.1562V81.25C63.9844 83.4937 62.1656 85.3125 59.9219 85.3125H46.7188C44.475 85.3125 42.6562 83.4937 42.6562 81.25V75.1562ZM59.9219 75.1562H46.7188V81.25H59.9219V75.1562Z" fill="black"/>
<path fill-rule="evenodd" clip-rule="evenodd" d="M68.0469 38.5938C68.0469 36.35 69.8657 34.5312 72.1094 34.5312H85.3125C87.5562 34.5312 89.375 36.35 89.375 38.5938V44.6875C89.375 46.9312 87.5562 48.75 85.3125 48.75H72.1094C69.8657 48.75 68.0469 46.9312 68.0469 44.6875V38.5938ZM85.3125 38.5938H72.1094V44.6875H85.3125V38.5938Z" fill="black"/>
<path fill-rule="evenodd" clip-rule="evenodd" d="M68.0469 56.875C68.0469 54.6313 69.8657 52.8125 72.1094 52.8125H85.3125C87.5562 52.8125 89.375 54.6313 89.375 56.875V62.9688C89.375 65.2125 87.5562 67.0312 85.3125 67.0312H72.1094C69.8657 67.0312 68.0469 65.2125 68.0469 62.9688V56.875ZM85.3125 56.875H72.1094V62.9688H85.3125V56.875Z" fill="black"/>
</svg>
