<svg width="130" height="130" viewBox="0 0 130 130" fill="none" xmlns="http://www.w3.org/2000/svg">
<path fill-rule="evenodd" clip-rule="evenodd" d="M24.375 86.3281C22.1313 86.3281 20.3125 84.5093 20.3125 82.2656V54.8438C20.3125 53.7219 21.2219 52.8125 22.3438 52.8125C23.4656 52.8125 24.375 53.7219 24.375 54.8438V82.2656H38.5938C40.8375 82.2656 42.6562 84.0844 42.6562 86.3281V111.719C42.6562 112.841 41.7469 113.75 40.625 113.75C39.5031 113.75 38.5938 112.841 38.5938 111.719V86.3281H24.375ZM34.5312 90.3906H24.375C19.8877 90.3906 16.25 86.7529 16.25 82.2656V54.8438C16.25 51.4782 18.9783 48.75 22.3438 48.75C25.7093 48.75 28.4375 51.4782 28.4375 54.8438V78.2031H38.5938C43.081 78.2031 46.7188 81.8409 46.7188 86.3281V111.719C46.7188 115.084 43.9906 117.812 40.625 117.812C37.2594 117.812 34.5312 115.084 34.5312 111.719V90.3906Z" fill="black"/>
<path fill-rule="evenodd" clip-rule="evenodd" d="M34.5312 32.5C34.5312 39.231 29.0747 44.6875 22.3438 44.6875C15.6128 44.6875 10.1562 39.231 10.1562 32.5C10.1562 25.769 15.6128 20.3125 22.3438 20.3125C29.0747 20.3125 34.5312 25.769 34.5312 32.5ZM22.3438 40.625C26.831 40.625 30.4688 36.9872 30.4688 32.5C30.4688 28.0128 26.831 24.375 22.3438 24.375C17.8564 24.375 14.2188 28.0128 14.2188 32.5C14.2188 36.9872 17.8564 40.625 22.3438 40.625Z" fill="black"/>
<path fill-rule="evenodd" clip-rule="evenodd" d="M105.625 86.3281C107.869 86.3281 109.688 84.5093 109.688 82.2656V54.8438C109.688 53.7219 108.778 52.8125 107.656 52.8125C106.534 52.8125 105.625 53.7219 105.625 54.8438V82.2656H91.4062C89.1625 82.2656 87.3438 84.0844 87.3438 86.3281V111.719C87.3438 112.841 88.2531 113.75 89.375 113.75C90.4969 113.75 91.4062 112.841 91.4062 111.719V86.3281H105.625ZM95.4688 90.3906H105.625C110.112 90.3906 113.75 86.7529 113.75 82.2656V54.8438C113.75 51.4782 111.022 48.75 107.656 48.75C104.291 48.75 101.562 51.4782 101.562 54.8438V78.2031H91.4062C86.919 78.2031 83.2812 81.8409 83.2812 86.3281V111.719C83.2812 115.084 86.0094 117.812 89.375 117.812C92.7406 117.812 95.4688 115.084 95.4688 111.719V90.3906Z" fill="black"/>
<path fill-rule="evenodd" clip-rule="evenodd" d="M95.4688 32.5C95.4688 39.231 100.925 44.6875 107.656 44.6875C114.387 44.6875 119.844 39.231 119.844 32.5C119.844 25.769 114.387 20.3125 107.656 20.3125C100.925 20.3125 95.4688 25.769 95.4688 32.5ZM107.656 40.625C103.169 40.625 99.5312 36.9872 99.5312 32.5C99.5312 28.0128 103.169 24.375 107.656 24.375C112.143 24.375 115.781 28.0128 115.781 32.5C115.781 36.9872 112.143 40.625 107.656 40.625Z" fill="black"/>
<path fill-rule="evenodd" clip-rule="evenodd" d="M84.2969 20.3125C84.2969 18.0688 82.4781 16.25 80.2344 16.25H44.6875C42.4438 16.25 40.625 18.0688 40.625 20.3125V45.8774C40.625 46.9548 41.053 47.9881 41.8149 48.75L47.9087 54.8438C50.4678 57.4029 54.8438 55.5904 54.8438 51.9712V48.75H80.2344C82.4781 48.75 84.2969 46.9312 84.2969 44.6875V20.3125ZM44.6875 20.3125H80.2344V44.6875H54.8438C52.6 44.6875 50.7812 46.5063 50.7812 48.75V51.9712L44.6875 45.8774V20.3125Z" fill="black"/>
<path fill-rule="evenodd" clip-rule="evenodd" d="M80.2344 42.6562C80.2344 41.5344 81.1438 40.625 82.2656 40.625H84.2969C86.5406 40.625 88.3594 42.4438 88.3594 44.6875V64.1587C88.3594 65.236 87.9314 66.2693 87.1695 67.0312L81.0757 73.125C78.5165 75.6842 74.1406 73.8717 74.1406 70.2524V67.0312H48.75C46.5063 67.0312 44.6875 65.2125 44.6875 62.9688V50.7812C44.6875 49.6594 45.5969 48.75 46.7188 48.75C47.8406 48.75 48.75 49.6594 48.75 50.7812V62.9688H74.1406C76.3843 62.9688 78.2031 64.7875 78.2031 67.0312V70.2524L84.2969 64.1587V44.6875H82.2656C81.1438 44.6875 80.2344 43.7781 80.2344 42.6562Z" fill="black"/>
</svg>
