<svg width="412" height="250" viewBox="0 0 412 238" fill="none" xmlns="http://www.w3.org/2000/svg">
<g clip-path="url(#clip0_110_865)">
<path d="M206 169.17C274.843 169.17 330.651 131.3 330.651 84.5851C330.651 37.87 274.843 0 206 0C137.157 0 81.3486 37.87 81.3486 84.5851C81.3486 131.3 137.157 169.17 206 169.17Z" fill="url(#paint0_linear_110_865)" stroke="black" stroke-width="3.08727"/>
<path d="M206 162.546C266.975 162.546 316.406 127.642 316.406 84.5851C316.406 41.5284 266.975 6.62414 206 6.62414C145.025 6.62414 95.5945 41.5284 95.5945 84.5851C95.5945 127.642 145.025 162.546 206 162.546Z" fill="url(#paint1_radial_110_865)"/>
<path fill-rule="evenodd" clip-rule="evenodd" d="M274.685 93.5022C270.106 76.1775 264.51 59.872 254.334 44.076C244.352 29.3194 223.278 34.5729 206.855 32.0047V133.329C206.855 163.881 260.725 156.416 291.45 127.825C280.938 120.243 278.038 105.971 274.685 93.5022Z" fill="url(#paint2_linear_110_865)"/>
<path fill-rule="evenodd" clip-rule="evenodd" d="M312.29 84.5851C312.29 42.9346 264.474 9.17188 205.491 9.17188H205.405V26.6647H206.855V32.0047C223.273 34.5729 244.352 29.3194 254.334 44.076C264.51 59.872 270.107 76.1775 274.686 93.5022C278.038 105.971 280.944 120.243 291.45 127.825C303.712 116.417 312.29 101.65 312.29 84.5851Z" fill="url(#paint3_linear_110_865)"/>
<path fill-rule="evenodd" clip-rule="evenodd" d="M137.315 93.5022C141.894 76.1775 147.49 59.872 157.666 44.076C167.648 29.3194 188.722 34.5729 205.145 32.0047V133.329C205.145 163.881 151.276 156.416 120.55 127.825C131.062 120.243 133.962 105.971 137.315 93.5022Z" fill="url(#paint4_linear_110_865)"/>
<path fill-rule="evenodd" clip-rule="evenodd" d="M99.7104 84.5851C99.7104 42.9346 147.526 9.17188 206.509 9.17188H206.595V26.6647H205.145V32.0047C188.727 34.5729 167.648 29.3194 157.666 44.076C147.49 59.872 141.894 76.1775 137.314 93.5022C133.962 105.971 131.056 120.243 120.55 127.825C108.289 116.417 99.7104 101.65 99.7104 84.5851Z" fill="url(#paint5_linear_110_865)"/>
<path d="M368.037 178.841C367.106 177.466 362.562 177.695 360.954 177.863C359.84 177.98 358.782 178.362 357.902 178.964C357.459 194.082 357.657 212.237 357.657 228.37C357.657 230.01 357.256 234.285 357.902 235.218C358.619 236.262 361.58 236.074 363.03 236.074C365.172 236.074 367.156 236.191 368.037 235.096C368.479 220.528 368.281 201.618 368.281 185.69C368.281 184.074 368.683 179.794 368.037 178.841ZM378.66 179.086C378.441 193.888 378.538 212.135 378.538 228.125C378.538 230.127 378.065 234.178 378.782 235.218C379.55 236.334 384.318 236.303 386.475 236.074C387.538 235.962 388.719 235.61 389.161 234.851V179.208C387.35 177.18 380.695 177.44 378.66 179.086ZM47.5043 190.215C53.7166 189.048 59.4251 190.877 63.5004 192.783C64.4468 193.226 66.7566 194.872 67.7742 194.495C69.499 193.858 69.0563 187.677 68.3847 186.179C67.5605 184.334 64.5689 183.162 62.4015 182.51C60.117 181.822 56.8812 181.216 54.2203 181.043C47.5603 180.604 42.0299 181.781 37.8578 183.611C29.5393 187.259 23.4339 195.595 22.8386 207.213V211.982C24.3751 228.247 34.2913 238 53.6097 236.563C56.3419 236.359 58.9163 236.059 61.6688 235.34C63.938 234.744 67.6165 233.949 68.3847 232.161C68.9902 230.744 68.7511 228.064 68.7511 225.924V212.716C68.7511 209.287 69.2802 206.128 66.9194 205.256C64.5434 204.38 60.3155 205.012 56.9066 205.012H51.7781C50.1958 205.012 47.83 204.788 47.0159 205.256C45.3268 206.23 45.8254 212.023 47.0159 213.328C50.3535 213.613 54.2203 213.368 57.7614 213.45V226.046C50.6741 229.455 42.615 226.841 38.8347 222.866C34.851 218.683 32.8616 210.433 34.8052 202.811C36.474 196.258 40.7986 191.473 47.5043 190.215ZM301.61 182.51C300.842 183.32 300.552 186.418 300.267 187.646C297.367 200.044 294.355 213.419 291.597 225.068C288.473 212.691 285.436 200.11 282.317 187.524C281.941 186.011 281.488 183.06 280.73 182.388C279.733 181.506 277.138 181.654 275.113 181.654C273.134 181.654 270.549 181.654 269.618 182.51C268.885 183.183 268.402 185.929 268.031 187.524C265.105 200.069 262.032 212.93 259.117 224.945C256.349 212.803 253.179 199.845 250.447 187.524C250.05 185.746 249.892 183.03 249.104 182.266C247.873 181.073 239.152 181.333 238.358 182.632C237.549 183.957 239.02 187.621 239.457 189.358C242.902 203.009 246.26 215.661 249.714 228.981C250.223 230.933 250.762 234.367 251.79 235.218C253.591 236.706 263.833 236.589 265.466 235.218C266.255 234.555 266.545 232.645 266.932 231.06C269.633 219.952 271.867 209.644 274.746 199.142C277.168 209.689 280.043 220.191 282.683 230.693C283.085 232.283 283.253 234.352 284.027 235.096C285.843 236.838 296.497 236.589 298.069 234.973C299.066 233.949 299.499 230.617 300.023 228.614C303.437 215.519 307.227 201.919 310.402 189.358C310.967 187.132 312.01 184.788 311.379 182.388C309.578 181.527 303.075 180.966 301.61 182.51ZM206.733 227.269C205.674 226.53 205.15 224.533 205.023 222.866C204.616 217.47 205.242 209.302 205.145 204.4C208.005 204.329 211.159 204.553 213.815 204.278C215.133 202.607 215.153 197.893 213.937 196.085C211.424 195.544 207.938 195.978 205.023 195.84C204.947 192.859 205.181 189.567 204.901 186.79C202.851 185.333 196.542 185.297 194.644 186.913C194.364 189.69 194.598 192.981 194.522 195.962C193.112 195.743 190.93 195.784 189.515 195.962C187.999 197.562 188.065 202.535 189.393 204.278C190.848 204.614 193.072 204.181 194.522 204.523C195.382 213.486 192.573 226.291 196.598 232.527C198.053 234.78 201.065 236.425 204.901 236.685C208.076 236.899 212.874 236.482 214.059 234.851C215.25 233.215 215.026 228.675 213.937 227.024C211.912 227.396 208.635 228.599 206.733 227.269ZM99.1558 194.862C92.7757 194.398 90.9746 199.081 88.2883 201.588C88.217 199.906 88.4358 197.934 88.1661 196.451C86.3498 195.183 80.8804 195.121 79.3744 196.696C79.1709 209.21 79.1709 222.581 79.3744 235.096C81.4146 236.558 87.7133 236.558 89.7535 235.096C90.0385 227.391 89.7943 219.157 89.8757 211.249C91.7073 208.701 93.3557 205.521 96.5916 204.767C98.5148 204.319 100.942 206.061 102.209 205.501C103.318 205.012 103.17 202.755 103.185 201.098C103.236 196.38 103.124 195.152 99.1558 194.862ZM134.567 196.696C131.107 194.994 126.544 194.383 121.868 195.106C113.626 196.385 108.767 202.005 107.093 209.903C106.202 214.092 106.325 219.376 107.215 223.356C109.067 231.641 114.109 235.85 123.455 236.808H129.316C131.158 236.543 133.468 236.257 135.666 235.707C137.386 235.274 140.087 234.744 140.794 233.506C141.644 232.018 141.242 228.313 140.672 226.535C138.347 226.51 135.987 227.646 133.468 228.247C125.17 230.224 116.51 228.217 117.228 218.586H135.055C137.971 218.586 141.257 219.05 142.382 217.363C143.415 215.814 143.043 212.548 142.87 210.637C142.229 203.529 139.014 198.882 134.567 196.696ZM117.228 211.738C117.314 206.24 120.453 201.909 126.019 202.321C130.532 202.658 132.888 206.291 132.735 211.738C128.121 211.743 121.837 211.738 117.228 211.738ZM183.166 216.263C183.166 209.99 183.588 203.539 180.479 199.631C176.19 194.24 165.557 193.893 157.767 196.329C155.407 197.068 152.558 197.995 151.662 199.753C150.762 201.521 151.23 206.25 152.761 206.602C154.028 206.892 155.804 205.465 156.791 205.012C159.986 203.539 166.269 201.297 170.345 203.789C172.619 205.18 172.955 207.758 172.787 211.982C163.298 211.809 154.313 212.497 150.685 218.586C148.513 222.235 148.823 227.814 150.685 231.06C152.537 234.28 156.094 236.206 160.454 236.808H164.85C166.981 236.502 168.752 235.743 170.345 234.851C171.973 233.944 173.224 232.823 174.496 231.916C174.542 232.889 174.333 234.454 174.618 235.462C176.399 236.099 181.853 236.864 182.922 235.34C183.441 234.606 183.166 232.079 183.166 230.693V216.263ZM172.787 224.823C172.492 225.903 170.268 227.758 168.635 228.614C166.03 229.975 162.051 229.384 160.576 227.636C159.187 225.995 159.151 222.999 160.332 221.277C162.336 218.347 167.745 218.545 172.787 218.586C172.38 220.798 173.326 222.851 172.787 224.823ZM344.958 199.876C341.142 194.525 330.514 193.756 322.613 196.085C320.303 196.767 316.69 197.883 315.775 199.876C314.95 201.669 315.373 206.377 316.996 206.602C318.232 206.77 320.114 205.486 321.392 204.89C325.095 203.152 334.299 200.772 336.411 205.746C337.174 207.544 336.879 208.859 337.021 211.86C326.871 211.906 318.049 212.533 314.553 219.32C312.595 223.121 313.2 228.441 315.042 231.427C316.868 234.392 320.623 236.283 324.688 236.808H328.962C332.651 236.359 335.408 234.591 337.754 232.527C337.968 232.339 338.288 231.819 338.609 232.038C338.833 233.603 338.146 234.739 338.975 235.585C340.364 237.001 345.625 235.896 347.034 235.462C347.487 228.823 347.278 222.917 347.278 216.63C347.278 210.332 347.818 203.886 344.958 199.876ZM337.021 224.701C336.553 226.637 332.325 229.159 329.939 229.348C327.385 229.547 325.268 228.589 324.322 227.024C322.857 224.599 323.956 221.19 325.91 219.931C328.514 218.255 332.442 218.683 337.021 218.586C336.665 220.782 337.494 222.739 337.021 224.701Z" fill="#CE181E"/>
<path fill-rule="evenodd" clip-rule="evenodd" d="M271.104 124.111C269.857 124.111 268.651 124.019 267.507 123.836C266.789 123.718 249.786 120.646 250.259 99.6473V62.4299L205.995 38.1652L161.731 62.4299V99.6168C162.209 120.646 145.206 123.718 144.483 123.836C143.349 124.019 142.138 124.111 140.891 124.111C137.391 124.111 128.426 123.285 120.835 115.657C113.824 108.61 110.298 98.1595 110.344 84.5902C110.481 46.9396 153.392 16.3056 205.995 16.3056C258.598 16.3056 301.508 46.9396 301.646 84.5902C301.697 98.1544 298.166 108.61 291.16 115.652C283.569 123.285 274.604 124.111 271.104 124.111Z" fill="white"/>
<path d="M206 17.5794C231.348 17.5794 255.138 24.6469 273.001 37.4722C290.59 50.109 300.318 66.8426 300.379 84.5953C300.43 97.813 297.026 107.958 290.259 114.755C283.004 122.047 274.446 122.837 271.104 122.837C269.923 122.837 268.784 122.75 267.715 122.577C267.675 122.572 263.528 121.828 259.509 118.74C254.029 114.531 251.343 108.116 251.536 99.6728V61.6758L250.213 60.9522L207.221 37.3856L206 36.7181L204.779 37.3856L161.787 60.9522L160.464 61.6758V99.6779C160.912 119.52 144.956 122.47 144.29 122.582C143.216 122.755 142.072 122.842 140.896 122.842C137.554 122.842 128.996 122.052 121.741 114.761C114.979 107.963 111.575 97.813 111.621 84.6004C111.687 66.8528 121.41 50.1141 139.004 37.4773C156.862 24.6469 180.653 17.5794 206 17.5794ZM206 15.0317C152.471 15.0317 109.22 46.1702 109.077 84.5851C108.96 115.775 127.882 125.385 140.896 125.385C142.234 125.385 143.506 125.283 144.692 125.094C144.692 125.094 163.517 122.037 163.008 99.6168V63.184L206 39.6174L248.992 63.184V99.6168C248.483 122.037 267.308 125.094 267.308 125.094C268.494 125.283 269.766 125.385 271.104 125.385C284.113 125.385 303.04 115.775 302.923 84.5851C302.78 46.1702 259.529 15.0317 206 15.0317Z" fill="#4D4D4D"/>
<path d="M152.299 64.997L210.511 32.9056L212.846 37.1553L154.634 69.2466L152.299 64.997Z" fill="white"/>
<path d="M199.131 37.1599L201.466 32.9102L259.678 65.0016L257.343 69.2512L199.131 37.1599Z" fill="white"/>
</g>
<defs>
<linearGradient id="paint0_linear_110_865" x1="144.242" y1="21.7669" x2="274.689" y2="154.053" gradientUnits="userSpaceOnUse">
<stop stop-color="#F7F7F7"/>
<stop offset="1" stop-color="#252525"/>
</linearGradient>
<radialGradient id="paint1_radial_110_865" cx="0" cy="0" r="1" gradientUnits="userSpaceOnUse" gradientTransform="translate(206.254 156.941) scale(80.4663 80.5877)">
<stop stop-color="#CCCCCC"/>
<stop offset="1" stop-color="white"/>
</radialGradient>
<linearGradient id="paint2_linear_110_865" x1="194.979" y1="55.1" x2="275.188" y2="138.896" gradientUnits="userSpaceOnUse">
<stop stop-color="#9B9B9B"/>
<stop offset="0.093" stop-color="#828282"/>
<stop offset="0.251" stop-color="#5E5E5E"/>
<stop offset="0.4" stop-color="#444444"/>
<stop offset="0.533" stop-color="#343434"/>
<stop offset="0.638" stop-color="#2F2F2F"/>
<stop offset="0.781" stop-color="white"/>
<stop offset="1" stop-color="#A0A0A0"/>
</linearGradient>
<linearGradient id="paint3_linear_110_865" x1="261.726" y1="111.153" x2="256.866" y2="16.5239" gradientUnits="userSpaceOnUse">
<stop stop-color="#9B9B9B"/>
<stop offset="0.542" stop-color="#2F2F2F"/>
<stop offset="0.722" stop-color="#313131"/>
<stop offset="0.796" stop-color="#383838"/>
<stop offset="0.852" stop-color="#444444"/>
<stop offset="0.897" stop-color="#565656"/>
<stop offset="0.936" stop-color="#6D6D6D"/>
<stop offset="0.971" stop-color="#888888"/>
<stop offset="1" stop-color="#A6A6A6"/>
</linearGradient>
<linearGradient id="paint4_linear_110_865" x1="217.021" y1="55.1" x2="136.812" y2="138.896" gradientUnits="userSpaceOnUse">
<stop stop-color="#9B9B9B"/>
<stop offset="0.093" stop-color="#828282"/>
<stop offset="0.251" stop-color="#5E5E5E"/>
<stop offset="0.4" stop-color="#444444"/>
<stop offset="0.533" stop-color="#343434"/>
<stop offset="0.638" stop-color="#2F2F2F"/>
<stop offset="0.781" stop-color="white"/>
<stop offset="1" stop-color="#A0A0A0"/>
</linearGradient>
<linearGradient id="paint5_linear_110_865" x1="150.274" y1="111.153" x2="155.134" y2="16.5239" gradientUnits="userSpaceOnUse">
<stop stop-color="#9B9B9B"/>
<stop offset="0.542" stop-color="#2F2F2F"/>
<stop offset="0.722" stop-color="#313131"/>
<stop offset="0.796" stop-color="#383838"/>
<stop offset="0.852" stop-color="#444444"/>
<stop offset="0.897" stop-color="#565656"/>
<stop offset="0.936" stop-color="#6D6D6D"/>
<stop offset="0.971" stop-color="#888888"/>
<stop offset="1" stop-color="#A6A6A6"/>
</linearGradient>
<clipPath id="clip0_110_865">
<rect width="412" height="238" fill="white"/>
</clipPath>
</defs>
</svg>
