<svg width="40" height="40" viewBox="0 0 40 40" fill="none" xmlns="http://www.w3.org/2000/svg">
<path fill-rule="evenodd" clip-rule="evenodd" d="M19.9212 34.2544L28.1545 19.9939C31.8138 13.6559 27.2397 5.7334 19.9212 5.7334C12.6027 5.7334 8.02866 13.6559 11.6879 19.9939L19.9212 34.2544ZM19.9212 32.7878L27.5195 19.6272C30.8965 13.7781 26.6752 6.46673 19.9212 6.46673C13.1673 6.46673 8.94602 13.7781 12.323 19.6272L19.9212 32.7878Z" fill="black"/>
<path fill-rule="evenodd" clip-rule="evenodd" d="M19.9212 10.9701C21.727 10.9701 23.1908 12.434 23.1908 14.2398C23.1908 16.0455 21.727 17.5094 19.9212 17.5094C18.1154 17.5094 16.6516 16.0455 16.6516 14.2398C16.6516 12.434 18.1154 10.9701 19.9212 10.9701ZM19.9212 10.2368C22.132 10.2368 23.9242 12.029 23.9242 14.2398C23.9242 16.4505 22.132 18.2427 19.9212 18.2427C17.7104 18.2427 15.9183 16.4505 15.9183 14.2398C15.9183 12.029 17.7104 10.2368 19.9212 10.2368Z" fill="black"/>
</svg>
