<svg width="130" height="130" viewBox="0 0 100 100" fill="none" xmlns="http://www.w3.org/2000/svg">
<g clip-path="url(#clip0_14_94)">
<path fill-rule="evenodd" clip-rule="evenodd" d="M31.25 54.6875V86.7187H73.3528C74.4302 86.7187 75.4317 87.2737 76.0027 88.1875L81.6792 97.27L84.8755 88.7466C85.333 87.5267 86.4989 86.7187 87.8016 86.7187H93.75V54.6875H31.25ZM31.25 89.8437C29.5241 89.8437 28.125 88.4447 28.125 86.7187V54.6875C28.125 52.9616 29.5241 51.5625 31.25 51.5625H93.75C95.4759 51.5625 96.875 52.9616 96.875 54.6875V86.7187C96.875 88.4447 95.4759 89.8437 93.75 89.8437H87.8016L84.6053 98.3672C84.0977 99.7208 82.8337 100.418 81.6152 100.395C80.632 100.376 79.6333 99.8925 79.0292 98.9262L73.3528 89.8437H31.25Z" fill="black"/>
<path fill-rule="evenodd" clip-rule="evenodd" d="M67.1165 3.09972V34.8718H24.0568C22.955 34.8718 21.9306 35.4223 21.3467 36.3287L15.5411 45.3377L12.2722 36.8832C11.8043 35.6732 10.6119 34.8718 9.27965 34.8718H3.19602V3.09972H67.1165ZM67.1165 37.9715C68.8816 37.9715 70.3125 36.5838 70.3125 34.8718V3.09972C70.3125 1.38774 68.8816 0 67.1165 0H3.19602C1.43086 0 0 1.38774 0 3.09972V34.8718C0 36.5838 1.43086 37.9715 3.19602 37.9715H9.27965L12.5485 46.426C13.0677 47.7687 14.3604 48.4599 15.6067 48.4369C16.6121 48.4185 17.6336 47.939 18.2514 46.9805L24.0568 37.9715H67.1165Z" fill="black"/>
<path fill-rule="evenodd" clip-rule="evenodd" d="M39.8438 63.2812C39.8438 62.4183 40.5433 61.7188 41.4062 61.7188H46.875C47.738 61.7188 48.4375 62.4183 48.4375 63.2812C48.4375 64.1442 47.738 64.8438 46.875 64.8438H41.4062C40.5433 64.8438 39.8438 64.1442 39.8438 63.2812ZM50.7812 63.2812C50.7812 62.4183 51.4808 61.7188 52.3438 61.7188H64.8438C65.7067 61.7188 66.4062 62.4183 66.4062 63.2812C66.4062 64.1442 65.7067 64.8438 64.8438 64.8438H52.3438C51.4808 64.8438 50.7812 64.1442 50.7812 63.2812Z" fill="black"/>
<path fill-rule="evenodd" clip-rule="evenodd" d="M57.8125 12.5C57.8125 11.637 57.113 10.9375 56.25 10.9375H50.7812C49.9183 10.9375 49.2188 11.637 49.2188 12.5C49.2188 13.363 49.9183 14.0625 50.7812 14.0625H56.25C57.113 14.0625 57.8125 13.363 57.8125 12.5ZM46.875 12.5C46.875 11.637 46.1755 10.9375 45.3125 10.9375H32.8125C31.9495 10.9375 31.25 11.637 31.25 12.5C31.25 13.363 31.9495 14.0625 32.8125 14.0625H45.3125C46.1755 14.0625 46.875 13.363 46.875 12.5Z" fill="black"/>
<path fill-rule="evenodd" clip-rule="evenodd" d="M39.8438 71.0938C39.8438 70.2308 40.5433 69.5312 41.4062 69.5312H64.8438C65.7067 69.5312 66.4062 70.2308 66.4062 71.0938C66.4062 71.9567 65.7067 72.6562 64.8438 72.6562H41.4062C40.5433 72.6562 39.8438 71.9567 39.8438 71.0938Z" fill="black"/>
<path fill-rule="evenodd" clip-rule="evenodd" d="M57.8125 20.3125C57.8125 19.4495 57.113 18.75 56.25 18.75H32.8125C31.9495 18.75 31.25 19.4495 31.25 20.3125C31.25 21.1755 31.9495 21.875 32.8125 21.875H56.25C57.113 21.875 57.8125 21.1755 57.8125 20.3125Z" fill="black"/>
<path fill-rule="evenodd" clip-rule="evenodd" d="M39.8438 78.9062C39.8438 78.0433 40.5433 77.3438 41.4062 77.3438H64.8438C65.7067 77.3438 66.4062 78.0433 66.4062 78.9062C66.4062 79.7692 65.7067 80.4688 64.8438 80.4688H41.4062C40.5433 80.4688 39.8438 79.7692 39.8438 78.9062Z" fill="black"/>
<path fill-rule="evenodd" clip-rule="evenodd" d="M57.8125 28.125C57.8125 27.262 57.113 26.5625 56.25 26.5625H32.8125C31.9495 26.5625 31.25 27.262 31.25 28.125C31.25 28.988 31.9495 29.6875 32.8125 29.6875H56.25C57.113 29.6875 57.8125 28.988 57.8125 28.125Z" fill="black"/>
</g>
<defs>
<clipPath id="clip0_14_94">
<rect width="100" height="100" fill="white"/>
</clipPath>
</defs>
</svg>
