<svg width="64" height="64" viewBox="0 0 64 64" fill="none" xmlns="http://www.w3.org/2000/svg">
<path fill-rule="evenodd" clip-rule="evenodd" d="M49.4903 39.4035C53.9828 37.1573 56 34.4242 56 32C56 29.5758 53.9828 26.8427 49.4903 24.5965C45.1175 22.41 38.9365 21 32 21C25.0635 21 18.8825 22.41 14.5097 24.5965C10.0172 26.8427 8 29.5758 8 32C8 34.4242 10.0172 37.1573 14.5097 39.4035C18.8825 41.59 25.0635 43 32 43C38.9365 43 45.1175 41.59 49.4903 39.4035ZM32 45C46.3594 45 58 39.1797 58 32C58 24.8203 46.3594 19 32 19C17.6406 19 6 24.8203 6 32C6 39.1797 17.6406 45 32 45Z" fill="black"/>
<path fill-rule="evenodd" clip-rule="evenodd" d="M25 32C25 36.6217 28.327 40 32 40C35.673 40 39 36.6217 39 32C39 27.3783 35.673 24 32 24C28.327 24 25 27.3783 25 32ZM23 32C23 37.5228 27.0294 42 32 42C36.9706 42 41 37.5228 41 32C41 26.4772 36.9706 22 32 22C27.0294 22 23 26.4772 23 32Z" fill="black"/>
</svg>
